<svg width="21" height="21" viewBox="0 0 21 21" fill="none" xmlns="http://www.w3.org/2000/svg">
<path d="M15.75 21C18.6495 21 21 18.6495 21 15.75C21 12.8505 18.6495 10.5 15.75 10.5C12.8505 10.5 10.5 12.8505 10.5 15.75C10.5 18.6495 12.8505 21 15.75 21ZM16.5 13.5V15H18C18.4142 15 18.75 15.3358 18.75 15.75C18.75 16.1642 18.4142 16.5 18 16.5H16.5V18C16.5 18.4142 16.1642 18.75 15.75 18.75C15.3358 18.75 15 18.4142 15 18V16.5H13.5C13.0858 16.5 12.75 16.1642 12.75 15.75C12.75 15.3358 13.0858 15 13.5 15H15V13.5C15 13.0858 15.3358 12.75 15.75 12.75C16.1642 12.75 16.5 13.0858 16.5 13.5Z" fill="white"/>
<path d="M13.5 4.5C13.5 6.98528 11.4853 9 9 9C6.51472 9 4.5 6.98528 4.5 4.5C4.5 2.01472 6.51472 0 9 0C11.4853 0 13.5 2.01472 13.5 4.5Z" fill="white"/>
<path d="M0 16.5C0 18 1.5 18 1.5 18H9.38409C9.13535 17.2962 9 16.5389 9 15.75C9 13.7195 9.89655 11.8984 11.3154 10.661C10.6156 10.5573 9.84598 10.5 9 10.5C1.5 10.5 0 15 0 16.5Z" fill="white"/>
</svg>
