<svg width="24" height="24" viewBox="0 0 24 24" fill="none" xmlns="http://www.w3.org/2000/svg">
<path d="M6 0.75C6 0.335786 5.66421 0 5.25 0C4.83579 0 4.5 0.335786 4.5 0.75V1.5H3C1.34315 1.5 0 2.84315 0 4.5V6H24V4.5C24 2.84315 22.6569 1.5 21 1.5H19.5V0.75C19.5 0.335786 19.1642 0 18.75 0C18.3358 0 18 0.335786 18 0.75V1.5H6V0.75Z" fill="white"/>
<path d="M24 10.5V7.5H0V15H7.5C8.32843 15 9 15.6716 9 16.5C9 17.3284 8.32843 18 7.5 18H0V21C0 22.6569 1.34315 24 3 24H21C22.6569 24 24 22.6569 24 21V13.5H15C14.1716 13.5 13.5 12.8284 13.5 12C13.5 11.1716 14.1716 10.5 15 10.5H24Z" fill="white"/>
</svg>
