<svg width="22" height="24" viewBox="0 0 22 24" fill="none" xmlns="http://www.w3.org/2000/svg">
<path d="M1.25 22.5C0.835786 22.5 0.5 22.8358 0.5 23.25C0.5 23.6642 0.835786 24 1.25 24H20.75C21.1642 24 21.5 23.6642 21.5 23.25C21.5 22.8358 21.1642 22.5 20.75 22.5H18.5V3.75001C18.5 2.50736 17.4926 1.5 16.25 1.5H15.5V0.750005C15.5 0.532586 15.4057 0.325867 15.2414 0.183414C15.0772 0.0409614 14.8592 -0.0232049 14.6439 0.00754281L4.14393 1.50754C3.77445 1.56033 3.5 1.87677 3.5 2.25V22.5H1.25ZM15.5 3.00001H16.25C16.6642 3.00001 17 3.33579 17 3.75001V22.5H15.5V3.00001ZM11.75 15C11.3358 15 11 14.3284 11 13.5C11 12.6716 11.3358 12 11.75 12C12.1642 12 12.5 12.6716 12.5 13.5C12.5 14.3284 12.1642 15 11.75 15Z" fill="white"/>
</svg>
