<svg width="21" height="21" viewBox="0 0 21 21" fill="none" xmlns="http://www.w3.org/2000/svg">
<path d="M13.5 4.5C13.5 6.98528 11.4853 9 9 9C6.51472 9 4.5 6.98528 4.5 4.5C4.5 2.01472 6.51472 0 9 0C11.4853 0 13.5 2.01472 13.5 4.5Z" fill="white"/>
<path d="M0 16.5C0 18 1.5 18 1.5 18H9.38409C9.13535 17.2962 9 16.5389 9 15.75C9 13.7195 9.89655 11.8984 11.3154 10.661C10.6156 10.5573 9.84598 10.5 9 10.5C1.5 10.5 0 15 0 16.5Z" fill="white"/>
<path d="M15.75 21C18.6495 21 21 18.6495 21 15.75C21 12.8505 18.6495 10.5 15.75 10.5C12.8505 10.5 10.5 12.8505 10.5 15.75C10.5 18.6495 12.8505 21 15.75 21ZM14.7803 13.7197L15.75 14.6893L16.7197 13.7197C17.0126 13.4268 17.4874 13.4268 17.7803 13.7197C18.0732 14.0126 18.0732 14.4874 17.7803 14.7803L16.8107 15.75L17.7803 16.7197C18.0732 17.0126 18.0732 17.4874 17.7803 17.7803C17.4874 18.0732 17.0126 18.0732 16.7197 17.7803L15.75 16.8107L14.7803 17.7803C14.4874 18.0732 14.0126 18.0732 13.7197 17.7803C13.4268 17.4874 13.4268 17.0126 13.7197 16.7197L14.6893 15.75L13.7197 14.7803C13.4268 14.4874 13.4268 14.0126 13.7197 13.7197C14.0126 13.4268 14.4874 13.4268 14.7803 13.7197Z" fill="white"/>
</svg>
