<svg width="24" height="24" viewBox="0 0 24 24" fill="none" xmlns="http://www.w3.org/2000/svg">
<path d="M17.8814 15.5131C19.3339 13.5311 19.9844 11.0738 19.7029 8.63282C19.4214 6.19181 18.2286 3.94711 16.3631 2.34779C14.4976 0.74848 12.0971 -0.0874957 9.64169 0.00711405C7.18632 0.101724 4.85721 1.11994 3.12034 2.85806C1.38346 4.59618 0.366912 6.92601 0.27406 9.38145C0.181207 11.8369 1.0189 14.2368 2.61955 16.1012C4.2202 17.9655 6.46575 19.1567 8.90697 19.4365C11.3482 19.7163 13.805 19.064 15.7859 17.6101H15.7844C15.8294 17.6701 15.8774 17.7271 15.9314 17.7826L21.7064 23.5576C21.9877 23.8391 22.3693 23.9973 22.7672 23.9974C23.1651 23.9975 23.5467 23.8396 23.8282 23.5583C24.1096 23.2771 24.2679 22.8955 24.268 22.4976C24.2681 22.0997 24.1102 21.7181 23.8289 21.4366L18.0539 15.6616C18.0003 15.6073 17.9426 15.5587 17.8814 15.5131ZM18.2684 9.7471C18.2684 10.8305 18.055 11.9033 17.6404 12.9042C17.2258 13.9052 16.6182 14.8146 15.8521 15.5807C15.086 16.3468 14.1765 16.9545 13.1756 17.3691C12.1746 17.7837 11.1018 17.9971 10.0184 17.9971C8.93503 17.9971 7.86223 17.7837 6.8613 17.3691C5.86036 16.9545 4.95089 16.3468 4.18481 15.5807C3.41872 14.8146 2.81103 13.9052 2.39643 12.9042C1.98183 11.9033 1.76844 10.8305 1.76844 9.7471C1.76844 7.55906 2.63763 5.46064 4.18481 3.91347C5.73198 2.36629 7.8304 1.4971 10.0184 1.4971C12.2065 1.4971 14.3049 2.36629 15.8521 3.91347C17.3992 5.46064 18.2684 7.55906 18.2684 9.7471Z" fill="#fff"/>
</svg>
